# xmcd
#
# Track frame offsets: 
#        150
#        4665
#        24120
#        61046
#        80801
#        101947
#        127068
#        149956
#
# Disc length: 2066 seconds
#
# Revision: 0
# Processed by: cddbd v1.5.2PL0 Copyright (c) Steve Scherf et al.
# Submitted via: ExactAudioCopy v0.99pb4
#
DISCID=6d081008
DTITLE=Substantial - QN5 Remix Vol.4 (Substantial Edition)
DYEAR=2008
DGENRE=Rap
TTITLE0=Introduction
TTITLE1=That Damn Good RMX (feat Fresh Daily)
TTITLE2=A P.G. Boy RMX
TTITLE3=Spaticus RMX
TTITLE4=Q.T. RMX
TTITLE5=Hood Hope (Smooth RMX)
TTITLE6=It's You (I Think) RMX (feat Steph)
TTITLE7=Outtro
EXTD=
EXTT0=
EXTT1=
EXTT2=
EXTT3=
EXTT4=
EXTT5=
EXTT6=
EXTT7=
PLAYORDER=
